<svg width="652" height="482" viewBox="0 0 652 482" fill="none" xmlns="http://www.w3.org/2000/svg">
<path d="M5.06748 478.589C3.20466 476.713 1.21543 472.568 0.646994 469.378C0.0785588 466.188 -0.161149 364.229 0.114324 242.802L0.61515 22.0251L4.7278 18.6714C8.50769 15.589 12.0476 15.3177 48.48 15.3177C85.8612 15.3177 88.3793 15.5235 92.6798 18.9303C96.237 21.7483 99.0155 28.2126 105.311 48.3173C109.75 62.4931 113.737 74.6965 114.171 75.4359C114.606 76.1752 118.319 72.2277 122.423 66.6636C132.184 53.4307 149.722 36.7145 162.442 28.5195C204.9 1.16655 242.851 -1.8745 508.82 0.764149L649.449 2.15932L602.483 93.3904C576.651 143.568 555.504 185.201 555.489 185.91C555.475 186.618 577.183 187.408 603.731 187.664L652 188.13L602.089 232.869L552.177 277.607L552.078 375.181C551.98 471.16 551.919 472.83 548.368 477.377L544.757 482H438.618C380.241 482 332.478 481.594 332.478 481.098C332.478 480.601 337.578 469.945 343.812 457.418C357.444 430.019 377.717 384.966 385.643 364.452C406.993 309.195 397.1 265.564 359.151 247.608L348.683 242.655L361.426 223.795C378.565 198.429 385.077 185.181 384.402 177.054C383.973 171.897 382.949 170.326 379.139 168.985C375.172 167.589 372.083 168.497 359.977 174.618C352.039 178.631 339.018 186.675 331.042 192.492L316.54 203.069L317.976 176.301C320.084 137.032 319.404 108.515 316.176 100.734C312.979 93.0271 307.278 92.0536 301.516 98.2304C295.208 104.992 284.221 130.645 273.727 163.109C268.194 180.225 263.275 194.233 262.796 194.238C262.317 194.243 260.103 191.552 257.876 188.258C251.595 178.969 221.006 148.599 212.37 143.079C208.111 140.357 203.194 138.129 201.445 138.129C192.372 138.129 193.557 157.438 205.169 198.825L211.767 222.342L204.618 222.37C172.47 222.493 146.506 243.965 137.072 278.231C134.16 288.805 133.883 298.167 133.883 385.906V482H71.1688C11.377 482 8.29661 481.841 5.06748 478.589Z" fill="url(#paint0_linear_1_51)"/>
<defs>
<linearGradient id="paint0_linear_1_51" x1="649.506" y1="254.037" x2="7.03134" y2="256.454" gradientUnits="userSpaceOnUse">
<stop stop-color="#FE4A01"/>
<stop offset="0.64" stop-color="#FE6B05"/>
</linearGradient>
</defs>
</svg>
