<?xml version="1.0" standalone="no"?>
<!DOCTYPE svg PUBLIC "-//W3C//DTD SVG 1.1//EN" "http://www.w3.org/Graphics/SVG/1.1/DTD/svg11.dtd">
<svg xmlns:inkscape="http://www.inkscape.org/namespaces/inkscape" xmlns:sodipodi="http://sodipodi.sourceforge.net/DTD/sodipodi-0.dtd" xmlns:xlink="http://www.w3.org/1999/xlink" xmlns="http://www.w3.org/2000/svg" xmlns:svg="http://www.w3.org/2000/svg" version="1.1" id="svg1" width="1920" height="585" viewBox="0 0 1920 585" sodipodi:docname="N-logo.svg" inkscape:version="1.4.2 (f4327f4, 2025-05-13)">
  <defs id="defs1">
    <linearGradient id="linearGradient231" inkscape:collect="always">
      <stop style="stop-color:#fe6b05;stop-opacity:1;" offset="0.18529412" id="stop231"/>
      <stop style="stop-color:#fe4a01;stop-opacity:1;" offset="1" id="stop232"/>
    </linearGradient>
    <linearGradient inkscape:collect="always" xlink:href="#linearGradient231" id="linearGradient232" x1="64.900557" y1="-464.44617" x2="1964.9012" y2="-464.44617" gradientUnits="userSpaceOnUse" gradientTransform="translate(-54.995788,757.00084)"/>
  </defs>
  <sodipodi:namedview id="namedview1" pagecolor="#ffffff" bordercolor="#000000" borderopacity="0.25" inkscape:showpageshadow="2" inkscape:pageopacity="0.0" inkscape:pagecheckerboard="0" inkscape:deskcolor="#d1d1d1" showgrid="false" inkscape:zoom="0.30911458" inkscape:cx="255.56866" inkscape:cy="-360.70767" inkscape:window-width="1920" inkscape:window-height="1009" inkscape:window-x="1912" inkscape:window-y="235" inkscape:window-maximized="1" inkscape:current-layer="g1"/>
  <g inkscape:groupmode="layer" inkscape:label="Image" id="g1">
    <path style="fill:url(#linearGradient232);fill-opacity:1" d="m 1357.1059,574.54314 c 0.3044,-0.825 14.7837,-37.19864 32.1762,-80.83031 17.3925,-43.63168 31.6227,-79.74418 31.6227,-80.25 0,-0.54078 -13.434,-0.91969 -32.607,-0.91969 -25.6989,0 -32.5052,-0.26519 -32.1266,-1.25174 0.2641,-0.68846 14.5998,-45.91288 31.8569,-100.49871 l 31.3767,-99.24696 81.8058,-0.001 81.8058,-10e-4 -6.4764,12.25 c -21.9313,41.48238 -70.6352,135.1867 -70.6352,135.89868 0,0.4679 15.1858,0.85073 33.7461,0.85073 h 33.7462 l -48.4962,48.56443 c -71.1335,71.23369 -168.4332,167.16526 -167.795,165.43557 z M 573.52126,573.44562 C 506.85907,566.41464 458.32638,528.33339 441.49292,469.8494 434.27,444.755 434.40477,447.44181 434.40477,328.54314 c 0,-117.42281 -0.29399,-111.93465 6.14015,-114.62301 4.27761,-1.78729 83.19537,-2.02749 88.24101,-0.26857 6.98944,2.43653 6.56019,-4.34466 7.14605,112.89158 l 0.5272,105.5 2.28984,7.5 c 7.08555,23.20763 21.36626,37.77018 41.76903,42.59338 8.29466,1.96085 25.84306,2.19331 33.4689,0.44335 9.53719,-2.18856 19.80768,-7.9127 26.96396,-15.02804 7.96645,-7.92088 13.05623,-17.28585 16.72321,-30.76999 l 2.64842,-9.7387 0.54111,-104.22794 0.54112,-104.22794 2.77175,-2.77206 2.77175,-2.77206 42.41299,-0.29069 c 35.96355,-0.24648 42.96061,-0.0619 46.01424,1.21401 7.01672,2.93178 6.66239,-3.72475 6.24954,117.40306 -0.36178,106.14542 -0.42025,108.93347 -2.51338,119.84326 -11.88716,61.95823 -49.52034,101.96586 -110.32018,117.2808 -21.43555,5.39943 -51.97736,7.40878 -75.27022,4.95204 z m 395.88355,0.42932 C 935.19782,569.67277 910.48042,558.6559 892.8117,539.73641 881.69586,527.83367 875.36786,515.8222 870.05619,496.54314 l -2.61739,-9.5 -0.30438,-97.25 -0.30438,-97.25 -16.21263,-0.002 c -17.79434,-0.002 -21.947,-1.02117 -24.43399,-5.99845 -0.92036,-1.84196 -1.25305,-10.98463 -1.26391,-34.73422 l -0.0147,-32.23378 2.91619,-3.26577 2.91619,-3.26578 18.08381,-0.33098 18.08381,-0.33099 V 157.4125 c 0,-60.613218 -0.13075,-59.306778 6.20284,-61.978508 4.83101,-2.03788 83.7633,-2.03788 88.5943,0 6.334,2.67188 6.2029,1.36104 6.2029,62.021638 v 55.01182 l 34.08315,0.28784 34.0831,0.28785 2.9169,3.26578 2.9169,3.26577 v 32.76172 c 0,28.67004 -0.2037,33.05248 -1.6307,35.08986 -3.3511,4.78433 -5.9749,5.11687 -40.37325,5.11687 h -32.0681 l 0.286,88.27215 0.286,88.27216 3.3102,6.72288 c 3.6972,7.5088 7.4035,10.86626 15.313,13.87165 6.719,2.55301 21.27915,2.67812 33.32255,0.28633 10.2079,-2.02727 14.0434,-1.30701 17.0865,3.20861 2.4535,3.64078 16.5228,58.00374 16.49,63.71622 -0.017,2.99596 -0.7455,4.57326 -3.2826,7.11044 -2.6719,2.67182 -4.9737,3.66323 -12.75,5.49156 -13.7746,3.23858 -32.2785,5.04797 -49.98965,4.88818 -8.525,-0.0769 -16.85,-0.30569 -18.5,-0.50838 z m 728.09949,-0.90929 c -42.4195,-6.59505 -74.0512,-29.00461 -88.9846,-63.04148 -7.3753,-16.80992 -10.8066,-40.22777 -8.6729,-59.18991 5.9215,-52.62363 42.4671,-86.81244 104.558,-97.81509 13.6849,-2.425 45.8268,-2.91515 61.5,-0.93784 12.5169,1.57911 30.9136,5.12417 38.8809,7.49235 l 3.381,1.00495 -0.5167,-15.71775 c -0.3972,-12.08641 -0.9968,-17.21946 -2.595,-22.21774 -5.4522,-17.05072 -18.3475,-28.27715 -38.6502,-33.64817 -5.6755,-1.50143 -10.6898,-1.85045 -26.5,-1.84453 -17.3362,0.006 -21.0305,0.31595 -33.2924,2.78884 -16.095,3.24594 -33.4799,8.15598 -46.5853,13.15721 -13.3187,5.08259 -18.4432,4.69434 -21.7218,-1.64574 -2.9509,-5.70651 -20.3738,-61.2388 -20.3873,-64.98088 -0.022,-6.22285 3.5408,-9.29516 14.8081,-12.76823 25.7772,-7.94567 57.8558,-14.46707 84.6787,-17.21477 17.6355,-1.80655 51.304,-1.51454 66.841,0.57971 39.3737,5.30722 68.0105,17.51596 89.7072,38.24484 16.062,15.34549 27.48,36.98693 32.3587,61.33172 3.1456,15.69664 3.5931,33.34267 3.5931,141.67734 0,116.73753 0.1642,112.99296 -5.1169,116.69197 -2.0273,1.41999 -6.2211,1.63069 -32.4577,1.63069 -38.3998,0 -34.8001,1.77965 -42.4933,-21.00781 -3.0624,-9.07071 -5.8036,-17.16719 -6.0916,-17.99219 -0.3906,-1.11894 -1.2416,-0.61085 -3.3498,2 -15.2682,18.90878 -39.5856,34.34297 -63.7412,40.45636 -18.2474,4.6181 -41.1406,5.76611 -59.15,2.96615 z m 63.1927,-69.99552 c 22.3277,-4.55664 38.8835,-20.05656 44.7831,-41.92699 0.9977,-3.6986 1.8225,-11.99965 2.1503,-21.64175 0.5997,-17.63769 1.5041,-15.68772 -8.2256,-17.73644 -12.0126,-2.52941 -22.0466,-3.45095 -37,-3.39814 -13.0372,0.046 -17.4814,0.45146 -24,2.18931 -17.3309,4.62042 -27.9344,12.13015 -33.7194,23.88117 -3.1325,6.36298 -3.2805,7.18387 -3.2788,18.18482 0,10.5746 0.2377,12.03219 2.8741,17.7434 8.5258,18.46893 31.6231,27.7644 56.4163,22.70462 z M 12.827846,563.62006 9.9047693,560.69699 V 390.13584 219.57469 l 2.9179707,-3.26577 2.917971,-3.26578 h 31.158871 31.15887 l 3.35026,3.65577 c 2.72456,2.97301 4.41996,7.02011 9.07789,21.66982 l 5.72762,18.01404 8.095278,-6.77822 c 19.37235,-16.22059 40.13656,-27.98537 62.64041,-35.49138 45.54154,-15.19007 97.05334,-10.92768 130.36716,10.78737 32.22834,21.00749 51.29156,57.92828 55.57885,107.6426 0.57697,6.69042 0.99532,56.1868 1.0003,118.34887 0.009,116.6082 0.24111,111.85725 -5.58669,114.51257 -1.74601,0.79553 -15.5736,1.13856 -45.89605,1.13856 H 259.0163 l -2.80577,-2.41284 -2.80576,-2.41285 -0.59019,-103.83715 c -0.63513,-111.74272 -0.41126,-107.05132 -5.85686,-122.73682 -6.74216,-19.42012 -20.65879,-33.81557 -38.75991,-40.09349 -6.28022,-2.17814 -10.22678,-2.80514 -20.33005,-3.22987 -15.23929,-0.64066 -24.82592,1.36514 -37.96299,7.94293 -10.24912,5.13177 -21.71616,15.88917 -27.42856,25.73109 -4.55545,7.84863 -9.18583,21.31859 -10.53353,30.64249 -0.60938,4.2159 -1.00601,45.02477 -1.0181,104.75222 -0.0181,89.47264 -0.16231,98.08695 -1.68508,100.66479 -0.9159,1.55049 -2.73707,3.30742 -4.04705,3.90429 -1.596,0.72718 -16.742898,1.08521 -45.911658,1.08521 H 15.750923 Z m 1115.826954,1.84297 c -4.6466,-2.70641 -4.4633,3.89952 -4.8683,-175.41989 -0.3577,-158.35454 -0.2734,-169.19789 1.3379,-172.14158 0.9952,-1.81811 3.0591,-3.60854 4.8992,-4.25 2.0276,-0.70683 13.1007,-1.10842 30.5625,-1.10842 29.4837,0 32.1154,0.3835 35.9325,5.23615 1.0723,1.36318 4.6353,11.09242 7.9179,21.62052 3.2826,10.52811 6.2295,19.14231 6.5488,19.14267 0.3192,3.6e-4 2.1129,-2.13684 3.9858,-4.74934 4.6747,-6.52067 16.9712,-19.26631 23.2465,-24.09557 18.4128,-14.17001 38.275,-21.90397 62.2709,-24.24704 9.3354,-0.91155 13.071,-0.82199 22.3261,0.53528 22.2798,3.26735 28.1094,6.47444 28.0698,15.44219 -0.011,2.53833 -4.0069,20.05333 -8.8793,38.92222 -9.3732,36.29873 -10.2278,38.4031 -16.1208,39.69742 -1.5231,0.33453 -7.5585,-0.31597 -13.4119,-1.44557 -23.5461,-4.54393 -40.2782,-3.47146 -54.3511,3.48373 -19.1573,9.46804 -29.8505,29.24886 -32.2089,59.5813 -0.5292,6.80682 -0.9724,54.37316 -0.9849,105.70296 l -0.023,93.32693 -2.9231,2.92307 -2.9231,2.92308 -44.3269,-0.0304 c -28.2431,-0.0194 -44.9619,-0.40025 -46.0769,-1.0497 z m 365.7505,-374.07117 c 2.1825,-7.34485 8.1171,-20.21474 12.7185,-27.5816 6.3506,-10.16744 19.2663,-24.21362 28.6857,-31.19644 15.9394,-11.81641 37.8615,-19.84595 58.9853,-21.60498 l 8.3901,-0.69865 -3.3052,5.86647 c -10.0131,17.77258 -31.275,41.30757 -47.0361,52.06459 -15.5804,10.63368 -33.1005,18.74405 -49.4388,22.88613 -3.3,0.83662 -6.8319,1.76684 -7.8487,2.06716 -1.546,0.45662 -1.7345,0.16142 -1.1508,-1.80268 z m -39.3747,-14.51896 c -17.8344,-17.71568 -27.1711,-36.5346 -30.6203,-61.71823 -0.6109,-4.46037 -0.5091,-4.82831 1.1625,-4.20146 9.2527,3.46972 24.0007,16.52586 31.1651,27.58993 2.3403,3.61412 5.576,10.71782 7.2879,16 2.5961,8.01027 3.1024,11.20965 3.229,20.40244 0.1085,7.88744 -0.1927,11.02062 -1.0893,11.32977 -0.6816,0.23502 -5.6923,-3.99608 -11.1349,-9.40245 z m 23.9812,0.92024 c -3.9572,-15.29724 -4.8575,-50.53955 -1.7563,-68.75 4.5381,-26.647678 13.333,-51.266828 26.0089,-72.804918 6.0823,-10.33473 17.1503,-25.69508 18.5148,-25.69508 1.2778,0 7.6888,19.9669 9.793,30.5 2.5172,12.60108 2.5225,42.40356 0.01,54.87399 -5.8024,28.795818 -18.7788,53.373588 -39.5079,74.829538 -5.7369,5.93806 -10.8046,10.79647 -11.2615,10.79647 -0.4569,0 -1.2672,-1.6875 -1.8008,-3.75 z" id="path230"/>
  </g>
</svg>